<svg xmlns="http://www.w3.org/2000/svg" width="80.47" height="63.5" viewBox="0 0 80.47 63.5">
  <metadata><?xpacket begin="﻿" id="W5M0MpCehiHzreSzNTczkc9d"?>
<x:xmpmeta xmlns:x="adobe:ns:meta/" x:xmptk="Adobe XMP Core 5.6-c140 79.160451, 2017/05/06-01:08:21        ">
   <rdf:RDF xmlns:rdf="http://www.w3.org/1999/02/22-rdf-syntax-ns#">
      <rdf:Description rdf:about=""/>
   </rdf:RDF>
</x:xmpmeta>
                                                                                                    
                                                                                                    
                                                                                                    
                                                                                                    
                                                                                                    
                                                                                                    
                                                                                                    
                                                                                                    
                                                                                                    
                                                                                                    
                                                                                                    
                                                                                                    
                                                                                                    
                                                                                                    
                                                                                                    
                                                                                                    
                                                                                                    
                                                                                                    
                                                                                                    
                                                                                                    
                           
<?xpacket end="w"?></metadata>
<defs>
    <style>
      .cls-1 {
        fill: #00aeac;
        fill-rule: evenodd;
      }
    </style>
  </defs>
  <path class="cls-1" d="M5817.62,2110.91h-1.37v-9.66a6.905,6.905,0,0,0-6.89-6.9h-50.17a6.905,6.905,0,0,0-6.89,6.9v9.66h-1.37a6.912,6.912,0,0,0-6.89,6.9v22.09a6.905,6.905,0,0,0,6.89,6.9h1.37v9.66a1.383,1.383,0,0,0,1.38,1.38h2.76a1.373,1.373,0,0,0,1.29-.89l3.79-10.15h45.51l3.8,10.15a1.364,1.364,0,0,0,1.29.89h2.75a1.383,1.383,0,0,0,1.38-1.38v-9.66h1.37a6.892,6.892,0,0,0,6.89-6.9v-22.09A6.9,6.9,0,0,0,5817.62,2110.91Zm-62.56-9.66a4.133,4.133,0,0,1,4.13-4.14h50.17a4.133,4.133,0,0,1,4.13,4.14v9.66h-4.13a1.383,1.383,0,0,0-1.38,1.38v15.18h-47.41v-15.18a1.383,1.383,0,0,0-1.38-1.38h-4.13v-9.66Zm-8.26,16.56a4.14,4.14,0,0,1,4.13-4.14h6.88v13.8H5746.8v-9.66Zm8.68,37.27h-0.42v-8.28h3.52Zm58.01,0h-0.42l-3.1-8.28h3.52v8.28Zm8.27-15.18a4.135,4.135,0,0,1-4.14,4.14h-66.69a4.133,4.133,0,0,1-4.13-4.14v-9.66h74.96v9.66Zm0-12.43h-11.02v-13.8h6.88a4.142,4.142,0,0,1,4.14,4.14v9.66Zm-70.83,13.81h55.68a1.38,1.38,0,0,0,0-2.76h-55.68A1.38,1.38,0,0,0,5750.93,2141.28Zm61.19,0h5.5a1.38,1.38,0,0,0,0-2.76h-5.5A1.38,1.38,0,0,0,5812.12,2141.28Z" transform="translate(-5744.03 -2094.34)"/>
</svg>
