<svg xmlns="http://www.w3.org/2000/svg" width="64.82" height="64.79" viewBox="0 0 64.82 64.79">
  <metadata><?xpacket begin="﻿" id="W5M0MpCehiHzreSzNTczkc9d"?>
<x:xmpmeta xmlns:x="adobe:ns:meta/" x:xmptk="Adobe XMP Core 5.6-c140 79.160451, 2017/05/06-01:08:21        ">
   <rdf:RDF xmlns:rdf="http://www.w3.org/1999/02/22-rdf-syntax-ns#">
      <rdf:Description rdf:about=""/>
   </rdf:RDF>
</x:xmpmeta>
                                                                                                    
                                                                                                    
                                                                                                    
                                                                                                    
                                                                                                    
                                                                                                    
                                                                                                    
                                                                                                    
                                                                                                    
                                                                                                    
                                                                                                    
                                                                                                    
                                                                                                    
                                                                                                    
                                                                                                    
                                                                                                    
                                                                                                    
                                                                                                    
                                                                                                    
                                                                                                    
                           
<?xpacket end="w"?></metadata>
<defs>
    <style>
      .cls-1 {
        fill: #00aeac;
        fill-rule: evenodd;
      }
    </style>
  </defs>
  <path class="cls-1" d="M6079.17,2144.29h-1.4v-2.8a1.445,1.445,0,0,0-1.39-1.52,1.393,1.393,0,0,0-1.43,1.45v2.87h-1.41a4.238,4.238,0,0,0-4.23,4.23v1.41h-11.27v-1.41a4.229,4.229,0,0,0-4.22-4.23h-5.64a4.229,4.229,0,0,0-4.22,4.23v1.41h-11.27v-1.41a4.238,4.238,0,0,0-4.23-4.23h-1.41v-11.27h1.41a4.229,4.229,0,0,0,4.23-4.22v-5.64a4.229,4.229,0,0,0-4.23-4.22h-1.41v-11.27h1.41a4.238,4.238,0,0,0,4.23-4.23v-1.41h2.67a1.307,1.307,0,0,0,1.45-1.43,1.535,1.535,0,0,0-1.46-1.44h-2.66v-1.35a4.238,4.238,0,0,0-4.23-4.23h-5.63a4.238,4.238,0,0,0-4.23,4.23v5.63a4.238,4.238,0,0,0,4.23,4.23h1.4v11.27h-1.4a4.229,4.229,0,0,0-4.23,4.22v5.64a4.229,4.229,0,0,0,4.23,4.22h1.4v11.27h-1.4a4.238,4.238,0,0,0-4.23,4.23v5.63a4.238,4.238,0,0,0,4.23,4.23h5.63a4.238,4.238,0,0,0,4.23-4.23v-1.4h11.27v1.4a4.229,4.229,0,0,0,4.22,4.23h5.64a4.229,4.229,0,0,0,4.22-4.23v-1.4h11.27v1.4a4.238,4.238,0,0,0,4.23,4.23h5.63a4.238,4.238,0,0,0,4.23-4.23v-5.63A4.238,4.238,0,0,0,6079.17,2144.29Zm-56.34-39.44a1.408,1.408,0,0,1-1.41-1.41v-5.63a1.408,1.408,0,0,1,1.41-1.41h5.63a1.408,1.408,0,0,1,1.41,1.41v5.63a1.408,1.408,0,0,1-1.41,1.41h-5.63Zm0,25.36a1.415,1.415,0,0,1-1.41-1.41v-5.64a1.415,1.415,0,0,1,1.41-1.41h5.63a1.408,1.408,0,0,1,1.41,1.41v5.64a1.415,1.415,0,0,1-1.41,1.41h-5.63Zm7.04,23.94a1.408,1.408,0,0,1-1.41,1.41h-5.63a1.408,1.408,0,0,1-1.41-1.41v-5.63a1.408,1.408,0,0,1,1.41-1.41h5.63a1.408,1.408,0,0,1,1.41,1.41v5.63Zm25.36,0a1.415,1.415,0,0,1-1.41,1.41h-5.64a1.415,1.415,0,0,1-1.41-1.41v-5.63a1.415,1.415,0,0,1,1.41-1.41h5.64a1.415,1.415,0,0,1,1.41,1.41v5.63Zm25.35,0a1.408,1.408,0,0,1-1.41,1.41h-5.63a1.408,1.408,0,0,1-1.41-1.41v-5.63a1.408,1.408,0,0,1,1.41-1.41h5.63a1.408,1.408,0,0,1,1.41,1.41v5.63Zm-1.41-46.48a4.238,4.238,0,0,0,4.23-4.23v-5.63a4.238,4.238,0,0,0-4.23-4.23h-5.63a4.238,4.238,0,0,0-4.23,4.23v1.4h-11.27v-1.4a4.229,4.229,0,0,0-4.22-4.23h-5.64a4.229,4.229,0,0,0-4.22,4.23v1.32h-2.83a1.258,1.258,0,0,0-1.4,1.47,1.511,1.511,0,0,0,1.42,1.43h2.81v1.41a4.229,4.229,0,0,0,4.22,4.23h5.64a4.229,4.229,0,0,0,4.22-4.23v-1.41h11.27v1.41a4.238,4.238,0,0,0,4.23,4.23h1.41v11.27h-1.41a4.229,4.229,0,0,0-4.23,4.22v5.64a4.229,4.229,0,0,0,4.23,4.22h1.41v2.55a1.359,1.359,0,0,0,1.33,1.46,1.345,1.345,0,0,0,1.49-1.43v-2.58h1.4a4.229,4.229,0,0,0,4.23-4.22v-5.64a4.229,4.229,0,0,0-4.23-4.22h-1.4v-11.27h1.4Zm-23.94-4.23a1.415,1.415,0,0,1-1.41,1.41h-5.64a1.415,1.415,0,0,1-1.41-1.41v-5.63a1.415,1.415,0,0,1,1.41-1.41h5.64a1.415,1.415,0,0,1,1.41,1.41v5.63Zm23.94,18.31a1.408,1.408,0,0,1,1.41,1.41v5.64a1.415,1.415,0,0,1-1.41,1.41h-5.63a1.415,1.415,0,0,1-1.41-1.41v-5.64a1.415,1.415,0,0,1,1.41-1.41h5.63Zm-5.63-16.9a1.408,1.408,0,0,1-1.41-1.41v-5.63a1.408,1.408,0,0,1,1.41-1.41h5.63a1.408,1.408,0,0,1,1.41,1.41v5.63a1.408,1.408,0,0,1-1.41,1.41h-5.63Z" transform="translate(-6018.59 -2093.59)"/>
</svg>
