<svg xmlns="http://www.w3.org/2000/svg" width="68.38" height="64.82" viewBox="0 0 68.38 64.82">
  <metadata><?xpacket begin="﻿" id="W5M0MpCehiHzreSzNTczkc9d"?>
<x:xmpmeta xmlns:x="adobe:ns:meta/" x:xmptk="Adobe XMP Core 5.6-c140 79.160451, 2017/05/06-01:08:21        ">
   <rdf:RDF xmlns:rdf="http://www.w3.org/1999/02/22-rdf-syntax-ns#">
      <rdf:Description rdf:about=""/>
   </rdf:RDF>
</x:xmpmeta>
                                                                                                    
                                                                                                    
                                                                                                    
                                                                                                    
                                                                                                    
                                                                                                    
                                                                                                    
                                                                                                    
                                                                                                    
                                                                                                    
                                                                                                    
                                                                                                    
                                                                                                    
                                                                                                    
                                                                                                    
                                                                                                    
                                                                                                    
                                                                                                    
                                                                                                    
                                                                                                    
                           
<?xpacket end="w"?></metadata>
<defs>
    <style>
      .cls-1 {
        fill: #00aeac;
        fill-rule: evenodd;
      }
    </style>
  </defs>
  <path class="cls-1" d="M6499.15,2126.51l-4.16-4.19,4.16,4.2v-0.01Zm-29.57,19.52a1.594,1.594,0,0,0,1.15-.47l3.26-3.29-3.26,3.28A1.6,1.6,0,0,1,6469.58,2146.03Zm23.51-19.52-12.98,13.07h0Zm4.73,0.97,0.18,0.19,1.15-1.14v-0.01l-1.13,1.13-0.19-.18-3.79-3.82-0.19-.19,1.14-1.14-1.15,1.15,0.2,0.19Zm-20.7-15.26a1.345,1.345,0,0,0,0-2.69,7.974,7.974,0,0,1-7.94-7.98,5.239,5.239,0,0,1,5.22-5.26,3.314,3.314,0,0,1,3.3,3.32,1.948,1.948,0,0,1-1.95,1.96,0.984,0.984,0,0,1-.98-0.99,0.314,0.314,0,0,1,.32-0.31,1.345,1.345,0,0,0,0-2.69,2.992,2.992,0,0,0-2.98,3,3.672,3.672,0,0,0,3.66,3.68,4.635,4.635,0,0,0,4.62-4.65,6,6,0,0,0-5.97-6.01,7.93,7.93,0,0,0-7.91,7.95A10.648,10.648,0,0,0,6477.12,2112.22Zm1.14,39.05h-8.92a1.345,1.345,0,0,0,0,2.69h8.92A1.345,1.345,0,0,0,6478.26,2151.27Zm37.56,2.69a1.345,1.345,0,0,0,0-2.69h-8.71a1.345,1.345,0,0,0,0,2.69h8.71Zm-29.81-2.28a1.339,1.339,0,0,0-.39.95,1.406,1.406,0,0,0,.39.96,1.339,1.339,0,0,0,.95.39,1.42,1.42,0,0,0,.95-0.39,1.353,1.353,0,0,0,.38-0.96,1.315,1.315,0,0,0-1.33-1.34A1.4,1.4,0,0,0,6486.01,2151.68Zm5.57-4.04a1.347,1.347,0,0,0-1.34-1.34h-10.05a1.345,1.345,0,0,0,0,2.69h10.05A1.349,1.349,0,0,0,6491.58,2147.64Zm34.76-8.06h-26.76a1.523,1.523,0,0,0-1.46,1.38,1.459,1.459,0,0,0,1.5,1.31h3.04a8.68,8.68,0,0,0-1.62,2.5l-1.27,2.96a5.838,5.838,0,0,1-5.37,3.56h-2.25a1.345,1.345,0,0,0,0,2.69h2.27a8.505,8.505,0,0,0,7.83-5.19l1.27-2.96a5.838,5.838,0,0,1,5.37-3.56h16.12v4.03h-9.19a1.345,1.345,0,0,0,0,2.69h9.19v6.72h-63.04v-6.99h7.61a4.357,4.357,0,0,0,3.05-1.26l5.15-5.19h14.19a1.468,1.468,0,0,0,1.55-1.35c0-1.41-1.73-1.34-1.73-1.34h-4.08l9.19-9.25,0.18,0.19a1.307,1.307,0,0,0,.95.39,1.392,1.392,0,0,0,.95-0.39l2.24-2.26a4.1,4.1,0,0,0,1.74.39,3.972,3.972,0,0,0,2.83-1.18l20.39-20.53a5.251,5.251,0,0,0,0-7.38l-4.39-4.43a5.172,5.172,0,0,0-7.33,0l-2.63,2.65a1.4,1.4,0,0,0,.02,1.89,1.434,1.434,0,0,0,1.87.01l2.62-2.65a2.5,2.5,0,0,1,3.55,0l3.02,3.04,1.82,1.97a2.552,2.552,0,0,1-.43,3l-20.42,20.53a1.31,1.31,0,0,1-1.88,0l-6.07-6.1a1.352,1.352,0,0,1,0-1.9l13.09-13.16a1.412,1.412,0,0,0-.02-1.91,1.275,1.275,0,0,0-1.81-.08l-13.17,13.24a4.079,4.079,0,0,0-.78,4.6l-2.25,2.26a1.34,1.34,0,0,0,0,1.89l0.19,0.19-6.91,6.98a11.315,11.315,0,0,0,.06-1.17,8.766,8.766,0,0,0-8.72-8.78,6.585,6.585,0,0,0-6.56,6.6,5.055,5.055,0,0,0,5.03,5.07,3.98,3.98,0,0,0,3.96-3.98,3.2,3.2,0,0,0-3.18-3.2,1.345,1.345,0,0,0,0,2.69,0.512,0.512,0,0,1,.51.51,1.293,1.293,0,0,1-1.29,1.29,2.375,2.375,0,0,1-2.36-2.38,3.905,3.905,0,0,1,3.89-3.91,6.073,6.073,0,0,1,6.05,6.09,9.15,9.15,0,0,1-9.11,9.17h-11.91a1.34,1.34,0,0,0-1.34,1.34v16.14a1.347,1.347,0,0,0,1.34,1.34h65.7a1.347,1.347,0,0,0,1.34-1.34v-16.14A1.34,1.34,0,0,0,6526.34,2139.58Zm-31.35-17.26,4.16,4.19v0.02l-1.15,1.14-0.18-.19-3.78-3.82-0.2-.19Zm-1.9,4.19,1.9,1.91-11.09,11.16h-3.79Zm-31.12,15.76h12.02l-3.26,3.29a1.594,1.594,0,0,1-1.15.47h-7.61v-3.76Z" transform="translate(-6459.31 -2093.59)"/>
</svg>
