<svg xmlns="http://www.w3.org/2000/svg" width="59.79" height="72" viewBox="0 0 59.79 72">
  <metadata><?xpacket begin="﻿" id="W5M0MpCehiHzreSzNTczkc9d"?>
<x:xmpmeta xmlns:x="adobe:ns:meta/" x:xmptk="Adobe XMP Core 5.6-c140 79.160451, 2017/05/06-01:08:21        ">
   <rdf:RDF xmlns:rdf="http://www.w3.org/1999/02/22-rdf-syntax-ns#">
      <rdf:Description rdf:about=""/>
   </rdf:RDF>
</x:xmpmeta>
                                                                                                    
                                                                                                    
                                                                                                    
                                                                                                    
                                                                                                    
                                                                                                    
                                                                                                    
                                                                                                    
                                                                                                    
                                                                                                    
                                                                                                    
                                                                                                    
                                                                                                    
                                                                                                    
                                                                                                    
                                                                                                    
                                                                                                    
                                                                                                    
                                                                                                    
                                                                                                    
                           
<?xpacket end="w"?></metadata>
<defs>
    <style>
      .cls-1 {
        fill: #00aeac;
        fill-rule: evenodd;
      }
    </style>
  </defs>
  <path class="cls-1" d="M5595.32,2154.09l-9.53-23.01a1.148,1.148,0,1,0-2.12.88l8.61,20.8-7.85-2.27a1.148,1.148,0,0,0-1.33.54l-3.95,7.17-9.24-22.32a23.165,23.165,0,1,0-22.96-8.92l-11.24,27.13a1.155,1.155,0,0,0,1.38,1.55l9.27-2.69,4.66,8.46a1.16,1.16,0,0,0,1.01.59h0.06a1.163,1.163,0,0,0,1-.71l8.9-21.5a1.148,1.148,0,0,0-2.12-.88l-7.99,19.29-3.95-7.17a1.14,1.14,0,0,0-1.32-.54l-7.86,2.27,9.86-23.81a23.1,23.1,0,0,0,16.91,7.35q1.02,0,2.04-.09l10.39,25.08a1.137,1.137,0,0,0,.99.71h0.07a1.156,1.156,0,0,0,1-.59l4.66-8.46,9.27,2.69a1.149,1.149,0,0,0,1.38-1.55h0Zm-50.65-40.94a20.85,20.85,0,1,1,20.85,20.85,20.869,20.869,0,0,1-20.85-20.85h0Zm34.12-4.31a1.142,1.142,0,0,0-.9-0.78l-7.73-1.3-3.62-6.95a1.164,1.164,0,0,0-1.02-.62,1.153,1.153,0,0,0-1.02.62l-3.62,6.95-7.73,1.3a1.145,1.145,0,0,0-.63,1.94l5.49,5.59-1.16,7.75a1.15,1.15,0,0,0,1.65,1.2l7.02-3.49,7.01,3.49a1.156,1.156,0,0,0,.51.12,1.127,1.127,0,0,0,.68-0.22,1.142,1.142,0,0,0,.46-1.1l-1.15-7.75,5.49-5.59A1.159,1.159,0,0,0,5578.79,2108.84Zm-7.8,5.55a1.138,1.138,0,0,0-.32.97l0.91,6.14-5.55-2.76a1.046,1.046,0,0,0-.51-0.13,1.084,1.084,0,0,0-.52.13l-5.55,2.76,0.91-6.14a1.132,1.132,0,0,0-.31-0.97l-4.35-4.43,6.12-1.03a1.146,1.146,0,0,0,.83-0.6l2.87-5.5,2.86,5.5a1.165,1.165,0,0,0,.83.6l6.12,1.03-4.34,4.43h0Zm11.93-.08a1.143,1.143,0,0,0-1.29.99,16.26,16.26,0,1,1,0-4.3,1.15,1.15,0,1,0,2.28-.3,18.55,18.55,0,1,0,0,4.9,1.15,1.15,0,0,0-.99-1.29h0Z" transform="translate(-5535.62 -2090)"/>
</svg>
