<svg xmlns="http://www.w3.org/2000/svg" width="21.97" height="21.687" viewBox="0 0 21.97 21.687">
  <metadata><?xpacket begin="﻿" id="W5M0MpCehiHzreSzNTczkc9d"?>
<x:xmpmeta xmlns:x="adobe:ns:meta/" x:xmptk="Adobe XMP Core 5.6-c140 79.160451, 2017/05/06-01:08:21        ">
   <rdf:RDF xmlns:rdf="http://www.w3.org/1999/02/22-rdf-syntax-ns#">
      <rdf:Description rdf:about=""/>
   </rdf:RDF>
</x:xmpmeta>
                                                                                                    
                                                                                                    
                                                                                                    
                                                                                                    
                                                                                                    
                                                                                                    
                                                                                                    
                                                                                                    
                                                                                                    
                                                                                                    
                                                                                                    
                                                                                                    
                                                                                                    
                                                                                                    
                                                                                                    
                                                                                                    
                                                                                                    
                                                                                                    
                                                                                                    
                                                                                                    
                           
<?xpacket end="w"?></metadata>
<defs>
    <style>
      .cls-1 {
        fill: #00aeac;
        fill-rule: evenodd;
      }
    </style>
  </defs>
  <path class="cls-1" d="M6594.28,153.253a0.657,0.657,0,0,0-.51-0.25h-16.48l-0.39-2.084a0.709,0.709,0,0,0-.67-0.575h-3.09a0.711,0.711,0,0,0-.67.755,0.839,0.839,0,0,0,.67.88h2.02l2.02,11.2a3.59,3.59,0,0,0,1.12,2.046,3.141,3.141,0,0,0,2.02.765h10.36a0.874,0.874,0,0,0,.67-0.911,0.743,0.743,0,0,0-.67-0.787h-9.75a2.179,2.179,0,0,1-1.33-.755l12.56-1.494a0.624,0.624,0,0,0,.57-0.568l1.7-7.723,0.01-.03V153.7A0.687,0.687,0,0,0,6594.28,153.253Zm-1.85,1.7-1.35,5.444-12.15,1.476-1.38-6.92h14.88ZM6581,166.927a2.552,2.552,0,1,0,2.46,2.55A2.479,2.479,0,0,0,6581,166.927Zm0,3.668a1.118,1.118,0,1,1,1.08-1.118A1.132,1.132,0,0,1,6581,170.6Zm8-3.564a2.5,2.5,0,1,0,2.41,2.5A2.425,2.425,0,0,0,6589,167.031Zm0,3.522a1.023,1.023,0,1,1,.98-1.022A1.031,1.031,0,0,1,6589,170.553Z" transform="translate(-6572.47 -150.344)"/>
</svg>
