<svg xmlns="http://www.w3.org/2000/svg" width="23" height="23" viewBox="0 0 23 23">
  <metadata><?xpacket begin="﻿" id="W5M0MpCehiHzreSzNTczkc9d"?>
<x:xmpmeta xmlns:x="adobe:ns:meta/" x:xmptk="Adobe XMP Core 5.6-c140 79.160451, 2017/05/06-01:08:21        ">
   <rdf:RDF xmlns:rdf="http://www.w3.org/1999/02/22-rdf-syntax-ns#">
      <rdf:Description rdf:about=""/>
   </rdf:RDF>
</x:xmpmeta>
                                                                                                    
                                                                                                    
                                                                                                    
                                                                                                    
                                                                                                    
                                                                                                    
                                                                                                    
                                                                                                    
                                                                                                    
                                                                                                    
                                                                                                    
                                                                                                    
                                                                                                    
                                                                                                    
                                                                                                    
                                                                                                    
                                                                                                    
                                                                                                    
                                                                                                    
                                                                                                    
                           
<?xpacket end="w"?></metadata>
<defs>
    <style>
      .cls-1 {
        fill: #d9d9d9;
        fill-rule: evenodd;
      }
    </style>
  </defs>
  <path class="cls-1" d="M6683.15,4023.99h-9.3a6.854,6.854,0,0,0-6.85,6.85v9.3a6.863,6.863,0,0,0,6.85,6.86h9.3a6.863,6.863,0,0,0,6.85-6.86v-9.3A6.854,6.854,0,0,0,6683.15,4023.99Zm4.54,16.15a4.543,4.543,0,0,1-4.54,4.54h-9.3a4.543,4.543,0,0,1-4.54-4.54v-9.3a4.543,4.543,0,0,1,4.54-4.54h9.3a4.543,4.543,0,0,1,4.54,4.54v9.3h0Zm-9.19-10.6a5.95,5.95,0,1,0,5.95,5.95A5.958,5.958,0,0,0,6678.5,4029.54Zm0,9.59a3.64,3.64,0,1,1,3.64-3.64A3.632,3.632,0,0,1,6678.5,4039.13Zm5.96-10.97a1.425,1.425,0,1,1-1.43,1.42A1.428,1.428,0,0,1,6684.46,4028.16Z" transform="translate(-6667 -4024)"/>
</svg>
