<svg xmlns="http://www.w3.org/2000/svg" width="15.13" height="15.625" viewBox="0 0 15.13 15.625">
  <metadata><?xpacket begin="﻿" id="W5M0MpCehiHzreSzNTczkc9d"?>
<x:xmpmeta xmlns:x="adobe:ns:meta/" x:xmptk="Adobe XMP Core 5.6-c140 79.160451, 2017/05/06-01:08:21        ">
   <rdf:RDF xmlns:rdf="http://www.w3.org/1999/02/22-rdf-syntax-ns#">
      <rdf:Description rdf:about=""/>
   </rdf:RDF>
</x:xmpmeta>
                                                                                                    
                                                                                                    
                                                                                                    
                                                                                                    
                                                                                                    
                                                                                                    
                                                                                                    
                                                                                                    
                                                                                                    
                                                                                                    
                                                                                                    
                                                                                                    
                                                                                                    
                                                                                                    
                                                                                                    
                                                                                                    
                                                                                                    
                                                                                                    
                                                                                                    
                                                                                                    
                           
<?xpacket end="w"?></metadata>
<defs>
    <style>
      .cls-1 {
        fill: #fff;
        fill-rule: evenodd;
      }
    </style>
  </defs>
  <path class="cls-1" d="M6553.63,238.952a1.106,1.106,0,0,0-.79-0.328h-1.75a2.749,2.749,0,0,0-.17-3.278,2.739,2.739,0,0,0-3.85-.336,0.693,0.693,0,1,1-1.34,0,2.716,2.716,0,0,0-1.99-.627,2.678,2.678,0,0,0-1.85.963,2.719,2.719,0,0,0-.17,3.278h-1.76a1.117,1.117,0,0,0-1.11,1.119v2.172a1.121,1.121,0,0,0,.8,1.073v5.878a1.119,1.119,0,0,0,1.12,1.119h11.26a1.119,1.119,0,0,0,1.12-1.119v-5.877a1.122,1.122,0,0,0,.8-1.074v-2.172A1.11,1.11,0,0,0,6553.63,238.952Zm-1.11,2.649h-5.4v-1.544h5.4V241.6Zm-5.37-3.1a4.453,4.453,0,0,1,.84-2.4,1.3,1.3,0,0,1,2.13,1.1,1.349,1.349,0,0,1-.46.879A4.38,4.38,0,0,1,6547.15,238.505Zm4.57,4.529v5.518h-4.6v-5.518h4.6Zm-6.04,0v5.518h-4.6v-5.518h4.6Zm-0.03-4.529a4.38,4.38,0,0,1-2.51-.414,1.3,1.3,0,0,1,1.67-1.984A4.376,4.376,0,0,1,6545.65,238.505Zm0.03,1.552V241.6h-5.4v-1.544h5.4Z" transform="translate(-6538.84 -234.375)"/>
</svg>
