<svg xmlns="http://www.w3.org/2000/svg" width="30" height="21" viewBox="0 0 30 21">
  <metadata><?xpacket begin="﻿" id="W5M0MpCehiHzreSzNTczkc9d"?>
<x:xmpmeta xmlns:x="adobe:ns:meta/" x:xmptk="Adobe XMP Core 5.6-c140 79.160451, 2017/05/06-01:08:21        ">
   <rdf:RDF xmlns:rdf="http://www.w3.org/1999/02/22-rdf-syntax-ns#">
      <rdf:Description rdf:about=""/>
   </rdf:RDF>
</x:xmpmeta>
                                                                                                    
                                                                                                    
                                                                                                    
                                                                                                    
                                                                                                    
                                                                                                    
                                                                                                    
                                                                                                    
                                                                                                    
                                                                                                    
                                                                                                    
                                                                                                    
                                                                                                    
                                                                                                    
                                                                                                    
                                                                                                    
                                                                                                    
                                                                                                    
                                                                                                    
                                                                                                    
                           
<?xpacket end="w"?></metadata>
<defs>
    <style>
      .cls-1 {
        fill: #d9d9d9;
        fill-rule: evenodd;
      }
    </style>
  </defs>
  <path class="cls-1" d="M6622.01,4025H6622s-6.29,0-10.49.3a4.294,4.294,0,0,0-3,1.27,6.485,6.485,0,0,0-1.2,2.96,45.088,45.088,0,0,0-.3,4.84v2.26a45.088,45.088,0,0,0,.3,4.84,6.445,6.445,0,0,0,1.2,2.96,5.129,5.129,0,0,0,3.3,1.28c2.4,0.23,10.2.3,10.2,0.3h0s6.3-.01,10.49-0.31a4.313,4.313,0,0,0,3.01-1.27,6.388,6.388,0,0,0,1.19-2.96,45.088,45.088,0,0,0,.3-4.84v-2.26a45.088,45.088,0,0,0-.3-4.84,6.427,6.427,0,0,0-1.19-2.96,4.313,4.313,0,0,0-3.01-1.27c-4.19-.3-10.49-0.3-10.49-0.3m-3.13,6.23,7.96,4.13-7.96,4.29v-8.42Z" transform="translate(-6607 -4025)"/>
</svg>
